<svg width="55" height="46" viewBox="0 0 55 46" fill="none" xmlns="http://www.w3.org/2000/svg">
<g clip-path="url(#clip0)">
<path fill-rule="evenodd" clip-rule="evenodd" d="M54.2282 42.4257C54.2188 42.4536 54.207 42.4814 54.1929 42.5069C54.1788 42.5348 54.1651 42.56 54.1369 42.5785C54.1315 42.5869 54.1261 42.5948 54.1207 42.6024C54.1151 42.6103 54.1096 42.6179 54.104 42.6255C54.0985 42.6329 54.093 42.6404 54.0875 42.6482C54.0764 42.6619 54.0644 42.6765 54.0521 42.6909C54.0436 42.7008 54.035 42.7106 54.0264 42.7201C54.0076 42.7387 53.9887 42.7572 53.9676 42.7758C53.9441 42.799 53.9182 42.8199 53.8923 42.8385C53.8817 42.8455 53.8699 42.853 53.8578 42.8606C53.8458 42.8681 53.8335 42.8756 53.8218 42.8826C53.8098 42.8885 53.7983 42.8948 53.7866 42.9012C53.7708 42.9099 53.7547 42.9187 53.7371 42.9267C53.7173 42.9365 53.6963 42.944 53.675 42.9516C53.6659 42.9548 53.6568 42.958 53.6478 42.9615C53.6415 42.9638 53.6355 42.9664 53.6295 42.969C53.6174 42.9741 53.6054 42.9793 53.5913 42.9824C53.5819 42.9847 53.5748 42.9824 53.5654 42.9847C53.4925 43.0033 53.4173 43.0149 53.3397 43.0149C53.2338 43.0149 53.1962 43.0311 53.1962 43.0311C53.1529 43.0806 53.0744 43.3281 53.0246 43.4849L53.0198 43.5C52.8364 44.0802 52.4531 45.2871 50.9033 45.2871C49.5777 45.2871 48.9192 44.4185 48.4374 43.7829L48.434 43.7784C47.9824 43.1773 47.8107 43.0148 47.4721 43.0148C47.1334 43.0148 46.9641 43.1773 46.5102 43.7761L46.5069 43.7805C46.025 44.4161 45.3665 45.2847 44.0385 45.2847C42.7129 45.2847 42.0544 44.4161 41.5726 43.7805L41.5692 43.7761C41.1176 43.1773 40.946 43.0148 40.6073 43.0148C40.271 43.0148 40.0993 43.1773 39.6454 43.7784C39.1657 44.4144 38.5048 45.2871 37.1761 45.2871C35.8481 45.2871 35.1896 44.4185 34.7078 43.7829L34.7044 43.7784C34.2529 43.1797 34.0812 43.0172 33.7426 43.0172C33.4039 43.0172 33.2346 43.1796 32.7807 43.7784C32.3009 44.4144 31.6424 45.2871 30.3113 45.2871C28.9857 45.2871 28.3272 44.4185 27.8454 43.7829L27.842 43.7784C27.3905 43.1797 27.2188 43.0172 26.8801 43.0172C26.5438 43.0172 26.3721 43.1797 25.9183 43.7808C25.4385 44.4168 24.7777 45.2895 23.4489 45.2895C22.1233 45.2895 21.4648 44.4209 20.983 43.7853L20.9796 43.7808C20.528 43.182 20.3564 43.0196 20.0177 43.0196C19.6814 43.0196 19.5097 43.1821 19.0558 43.7832C18.5761 44.4191 17.9152 45.2919 16.5865 45.2919C16.1655 45.2919 15.7822 45.1224 15.5117 44.8161C14.8556 44.078 14.9873 42.8201 15.2577 40.8286L15.2624 40.7941C15.359 40.0736 15.5062 38.9748 15.4576 38.4403C13.7009 38.779 11.2081 42.2538 9.91465 44.7814C9.75475 45.097 9.42786 45.292 9.0751 45.292C9.05629 45.292 9.03748 45.292 9.01866 45.2897C8.64474 45.2688 8.31785 45.0297 8.19086 44.6816C7.9745 44.0916 6.12605 38.8394 8.0474 35.9336C8.76702 34.8473 9.93348 34.223 11.4245 34.1278C12.7203 34.0443 13.3129 33.7007 13.4258 33.4292C13.5011 33.2481 13.3811 32.9394 13.1177 32.6447C12.4169 31.8579 10.8506 31.2266 9.06803 31.7047C6.59623 32.3642 3.82594 35.6344 2.8923 38.9952C2.56539 40.1766 2.21259 42.363 3.5484 43.7161C3.91056 44.0852 3.90116 44.6723 3.52959 45.0298C3.15566 45.3872 2.56305 45.3802 2.19853 45.0112C0.723992 43.5189 0.326549 41.2072 1.07675 38.5056C2.04784 35.0055 5.11934 30.8347 8.57637 29.9132C11.1515 29.2263 13.4209 30.1732 14.5309 31.4196C15.2999 32.2807 15.5304 33.2717 15.1659 34.1398C14.8484 34.8941 13.9642 35.8272 11.5466 35.9827C10.6459 36.0407 10.018 36.3587 9.62525 36.9505C8.83272 38.1481 9.01615 40.2718 9.37597 41.9662C10.7871 39.731 13.2635 36.484 15.8268 36.5629C16.2407 36.5768 16.6147 36.7532 16.8781 37.0619C17.1415 37.3682 17.2708 37.7651 17.3178 38.2572C19.0487 37.1269 21.5747 36.0081 26.5604 35.5115C21.1559 13.9031 31.3156 1.73878 31.7765 1.20263C31.7804 1.19875 31.7844 1.19569 31.7881 1.19275C31.7934 1.18866 31.7983 1.18483 31.8024 1.17942C31.8306 1.14924 31.8588 1.12371 31.8894 1.09818C31.9082 1.07961 31.927 1.06337 31.9482 1.04944C31.9771 1.03043 32.006 1.01453 32.0362 0.997919L32.0564 0.986774C32.0752 0.975169 32.094 0.963564 32.1152 0.95428C32.1598 0.935712 32.2045 0.921785 32.2516 0.910181C32.2625 0.908634 32.2735 0.905024 32.2845 0.901414L32.2845 0.9014C32.29 0.899599 32.2955 0.897799 32.3009 0.896255C32.3644 0.882329 32.4303 0.875366 32.4985 0.875366L32.6372 0.880008C32.9147 0.880008 33.1758 0.998379 33.3545 1.20727C33.8154 1.74084 43.9255 13.843 38.6177 35.3468C52.4973 36.1497 54.1952 41.6157 54.2611 41.8547C54.2623 41.8594 54.2629 41.8646 54.2634 41.8698C54.2638 41.8727 54.2641 41.8756 54.2645 41.8783C54.2649 41.8806 54.2653 41.8828 54.2658 41.8849L54.2799 41.9754C54.2846 42.0079 54.2893 42.0404 54.2893 42.0729L54.2896 42.0789L54.2905 42.0868L54.2911 42.0915C54.2914 42.0946 54.2917 42.0977 54.2917 42.1008C54.2917 42.1174 54.2898 42.1322 54.2877 42.1485V42.1486L54.287 42.1541L54.2867 42.1575C54.2844 42.189 54.282 42.2226 54.2752 42.254C54.2705 42.2818 54.2634 42.3097 54.2564 42.3375C54.2536 42.3466 54.251 42.3556 54.2484 42.3646L54.2483 42.365C54.2423 42.3858 54.2363 42.4063 54.2282 42.4257ZM33.4387 38.2061H35.8704C41.2255 20.9222 36.1879 9.27052 33.4387 4.64475V38.2061ZM31.5573 4.88841V38.2062H29.2644C24.013 21.2585 28.787 9.68102 31.5573 4.88841ZM51.2296 42.9722L51.2344 42.9572L51.2337 42.9573C51.3442 42.6091 51.5323 42.0381 51.9956 41.6366C50.9541 40.3368 47.6687 37.6677 38.1324 37.1826C37.9254 37.9184 37.702 38.6634 37.4575 39.42C37.3328 39.8053 36.9706 40.0676 36.5614 40.0676H28.5706C28.1613 40.0676 27.7992 39.8053 27.6745 39.42C27.4488 38.7144 27.2418 38.0204 27.0466 37.3358C21.0002 37.8974 18.8366 39.3945 17.1834 40.6571C17.176 40.7114 17.169 40.7654 17.162 40.8199C17.151 40.905 17.1398 40.9913 17.1269 41.0818C17.0352 41.7595 16.8941 42.804 16.9223 43.361C17.094 43.2612 17.2681 43.057 17.5503 42.681L17.5536 42.6766C18.0354 42.041 18.694 41.1723 20.0219 41.1723C21.3476 41.1723 22.0061 42.041 22.4879 42.6765L22.4913 42.681C22.9428 43.2798 23.1145 43.4422 23.4532 43.4422C23.7918 43.4422 23.9612 43.2798 24.415 42.681L24.4184 42.6766C24.9002 42.041 25.5588 41.1723 26.8867 41.1723C28.2124 41.1723 28.8708 42.041 29.3526 42.6765L29.356 42.681C29.81 43.2798 29.9816 43.4422 30.3179 43.4422C30.6566 43.4422 30.8259 43.2798 31.2798 42.681C31.7596 42.045 32.4181 41.1723 33.7491 41.1723C35.0748 41.1723 35.7333 42.041 36.2151 42.6765L36.2185 42.681C36.6724 43.2822 36.844 43.4446 37.1827 43.4446C37.5213 43.4446 37.6907 43.2822 38.1446 42.6834L38.1479 42.6789C38.6297 42.0434 39.2883 41.1747 40.6163 41.1747C41.9419 41.1747 42.6004 42.0433 43.0822 42.6789L43.0856 42.6834C43.5371 43.2822 43.7088 43.4446 44.0475 43.4446C44.3861 43.4446 44.5578 43.2821 45.0117 42.681C45.4915 42.045 46.1523 41.1723 47.481 41.1723C48.809 41.1723 49.4675 42.041 49.9493 42.6765L49.9527 42.681C50.4066 43.2798 50.5783 43.4422 50.9146 43.4422C51.0204 43.4422 51.058 43.426 51.058 43.426C51.1013 43.3765 51.1799 43.129 51.2296 42.9722Z" fill="white"/>
<path d="M54.1929 42.5069L53.7553 42.2651L53.7509 42.2729L53.7469 42.2809L54.1929 42.5069ZM54.2282 42.4257L53.7675 42.2313L53.7604 42.2482L53.7545 42.2657L54.2282 42.4257ZM54.1369 42.5785L53.8621 42.1608L53.7739 42.2189L53.7166 42.3076L54.1369 42.5785ZM54.1207 42.6024L53.7127 42.3133L53.7126 42.3135L54.1207 42.6024ZM54.104 42.6255L54.5071 42.9213L54.5072 42.9212L54.104 42.6255ZM54.0875 42.6482L54.476 42.963L54.486 42.9505L54.4953 42.9375L54.0875 42.6482ZM54.0521 42.6909L54.4324 43.0155L54.4324 43.0155L54.0521 42.6909ZM54.0264 42.7201L54.3776 43.076L54.387 43.0667L54.3959 43.057L54.0264 42.7201ZM53.9676 42.7758L53.6378 42.4L53.6268 42.4096L53.6164 42.4199L53.9676 42.7758ZM53.8923 42.8385L54.1671 43.2562L54.1756 43.2506L54.1839 43.2447L53.8923 42.8385ZM53.8578 42.8606L53.5927 42.4367L53.5926 42.4368L53.8578 42.8606ZM53.8218 42.8826L54.0431 43.3309L54.0602 43.3225L54.0766 43.3128L53.8218 42.8826ZM53.7866 42.9012L53.5464 42.4627L53.5464 42.4627L53.7866 42.9012ZM53.7371 42.9267L53.5299 42.4716L53.5229 42.4748L53.5159 42.4783L53.7371 42.9267ZM53.675 42.9516L53.5069 42.4807L53.5069 42.4807L53.675 42.9516ZM53.6478 42.9615L53.8213 43.4304L53.8253 43.4289L53.6478 42.9615ZM53.6295 42.969L53.4324 42.5095L53.4322 42.5095L53.6295 42.969ZM53.5913 42.9824L53.4842 42.4938L53.4716 42.4969L53.5913 42.9824ZM53.5654 42.9847L53.4457 42.4992L53.442 42.5002L53.5654 42.9847ZM53.1962 43.0311L52.998 42.5721L52.8943 42.6169L52.82 42.7018L53.1962 43.0311ZM53.0246 43.4849L53.5012 43.6363L53.5012 43.6362L53.0246 43.4849ZM53.0198 43.5L52.5433 43.3486L52.5431 43.3492L53.0198 43.5ZM48.4374 43.7829L48.8358 43.4809L48.8358 43.4809L48.4374 43.7829ZM48.434 43.7784L48.0342 44.0787L48.0355 44.0805L48.434 43.7784ZM46.5102 43.7761L46.9086 44.0782L46.9087 44.0781L46.5102 43.7761ZM46.5069 43.7805L46.1085 43.4784L46.1084 43.4784L46.5069 43.7805ZM41.5726 43.7805L41.971 43.4785L41.971 43.4784L41.5726 43.7805ZM41.5692 43.7761L41.17 44.0771L41.1708 44.0782L41.5692 43.7761ZM39.6454 43.7784L39.2464 43.4772L39.2463 43.4773L39.6454 43.7784ZM34.7078 43.7829L35.1063 43.4809L35.1061 43.4806L34.7078 43.7829ZM34.7044 43.7784L34.3052 44.0795L34.3062 44.0807L34.7044 43.7784ZM32.7807 43.7784L32.3822 43.4764L32.3815 43.4773L32.7807 43.7784ZM27.8454 43.7829L27.4469 44.0849L27.447 44.085L27.8454 43.7829ZM27.842 43.7784L27.4428 44.0795L27.4435 44.0805L27.842 43.7784ZM25.9183 43.7808L25.5192 43.4795L25.5191 43.4797L25.9183 43.7808ZM20.983 43.7853L20.5845 44.0873L20.5845 44.0874L20.983 43.7853ZM20.9796 43.7808L20.5804 44.0819L20.5811 44.0828L20.9796 43.7808ZM19.0558 43.7832L18.6568 43.4819L18.6567 43.4821L19.0558 43.7832ZM15.5117 44.8161L15.8866 44.4852L15.8854 44.4839L15.5117 44.8161ZM15.2577 40.8286L15.7532 40.8959L15.7533 40.895L15.2577 40.8286ZM15.2624 40.7941L14.7668 40.7277L14.7668 40.7277L15.2624 40.7941ZM15.4576 38.4403L15.9556 38.3951L15.9055 37.8448L15.363 37.9494L15.4576 38.4403ZM9.91465 44.7814L9.46954 44.5536L9.46861 44.5554L9.91465 44.7814ZM9.01866 45.2897L9.07994 44.7934L9.06328 44.7914L9.04652 44.7904L9.01866 45.2897ZM8.19086 44.6816L8.66058 44.5102L8.66029 44.5094L8.19086 44.6816ZM8.0474 35.9336L7.63057 35.6574L7.63033 35.6578L8.0474 35.9336ZM11.4245 34.1278L11.4563 34.6268L11.4567 34.6268L11.4245 34.1278ZM13.4258 33.4292L13.8875 33.6211L13.8875 33.6211L13.4258 33.4292ZM13.1177 32.6447L12.7444 32.9773L12.7449 32.9778L13.1177 32.6447ZM9.06803 31.7047L9.19693 32.1878L9.19756 32.1876L9.06803 31.7047ZM2.8923 38.9952L2.41054 38.8614L2.41041 38.8619L2.8923 38.9952ZM3.5484 43.7161L3.90526 43.3659L3.90422 43.3648L3.5484 43.7161ZM3.52959 45.0298L3.87508 45.3912L3.87622 45.3901L3.52959 45.0298ZM2.19853 45.0112L2.55426 44.6598L2.55419 44.6598L2.19853 45.0112ZM1.07675 38.5056L1.55852 38.6394L1.55855 38.6393L1.07675 38.5056ZM8.57637 29.9132L8.70515 30.3964L8.70526 30.3963L8.57637 29.9132ZM14.5309 31.4196L14.1575 31.7521L14.158 31.7526L14.5309 31.4196ZM15.1659 34.1398L15.6267 34.3337L15.6269 34.3334L15.1659 34.1398ZM11.5466 35.9827L11.5145 35.4837L11.5144 35.4837L11.5466 35.9827ZM9.62525 36.9505L9.20863 36.6741L9.20828 36.6746L9.62525 36.9505ZM9.37597 41.9662L8.88688 42.07L9.14231 43.2729L9.79876 42.2331L9.37597 41.9662ZM15.8268 36.5629L15.8436 36.0632L15.8422 36.0631L15.8268 36.5629ZM16.8781 37.0619L16.4977 37.3864L16.4989 37.3879L16.8781 37.0619ZM17.3178 38.2572L16.8201 38.3048L16.8988 39.128L17.5912 38.6758L17.3178 38.2572ZM26.5604 35.5115L26.6099 36.009L27.1859 35.9516L27.0454 35.3901L26.5604 35.5115ZM31.7765 1.20263L31.4253 0.846731L31.4107 0.861128L31.3974 0.876671L31.7765 1.20263ZM31.7881 1.19275L32.0959 1.58682L32.0959 1.58682L31.7881 1.19275ZM31.8024 1.17942L31.4372 0.837892L31.4197 0.856549L31.4043 0.876888L31.8024 1.17942ZM31.8894 1.09818L32.2099 1.48197L32.2258 1.46865L32.2406 1.45406L31.8894 1.09818ZM31.9482 1.04944L31.6734 0.631736L31.6734 0.631745L31.9482 1.04944ZM32.0362 0.997919L32.2772 1.43599L32.2778 1.43568L32.0362 0.997919ZM32.0564 0.986774L32.298 1.42453L32.3086 1.41868L32.3189 1.41233L32.0564 0.986774ZM32.1152 0.95428L31.9233 0.492469L31.9143 0.496391L32.1152 0.95428ZM32.2516 0.910181L32.1817 0.415077L32.1565 0.418635L32.1318 0.424738L32.2516 0.910181ZM32.2845 0.901414L32.4407 1.37639L32.4449 1.37496L32.2845 0.901414ZM32.2845 0.9014L32.1283 0.426409L32.124 0.42785L32.2845 0.9014ZM32.3009 0.896255L32.1938 0.407865L32.1794 0.411018L32.1653 0.41501L32.3009 0.896255ZM32.4985 0.875366L32.5152 0.375646L32.5068 0.375366H32.4985V0.875366ZM32.6372 0.880008L32.6205 1.37973L32.6289 1.38001H32.6372V0.880008ZM33.3545 1.20727L32.9746 1.53234L32.9761 1.53412L33.3545 1.20727ZM38.6177 35.3468L38.1322 35.2269L37.988 35.8112L38.5888 35.8459L38.6177 35.3468ZM54.2611 41.8547L54.7459 41.732L54.7431 41.722L54.2611 41.8547ZM54.2634 41.8698L54.7603 41.8142L54.7603 41.8139L54.2634 41.8698ZM54.2645 41.8783L53.7702 41.9533L53.7702 41.9535L54.2645 41.8783ZM54.2658 41.8849L54.7598 41.8079L54.7562 41.7849L54.7506 41.7624L54.2658 41.8849ZM54.2799 41.9754L54.7748 41.9038L54.7739 41.8984L54.2799 41.9754ZM54.2893 42.0729H53.7893V42.0845L53.7899 42.0962L54.2893 42.0729ZM54.2896 42.0789L53.7901 42.1021L53.7909 42.1186L53.7927 42.135L54.2896 42.0789ZM54.2905 42.0868L53.7936 42.1429L53.7941 42.1472L54.2905 42.0868ZM54.2911 42.0915L54.788 42.0361L54.7874 42.0312L54.2911 42.0915ZM54.2877 42.1485L53.7917 42.0849L53.7877 42.1166V42.1485H54.2877ZM54.2877 42.1486L54.7837 42.2118L54.7877 42.1803V42.1486H54.2877ZM54.287 42.1541L53.791 42.0909L53.7893 42.1045L53.7883 42.1181L54.287 42.1541ZM54.2867 42.1575L53.788 42.1214L53.788 42.1215L54.2867 42.1575ZM54.2752 42.254L53.7866 42.1478L53.7841 42.1592L53.7822 42.1707L54.2752 42.254ZM54.2564 42.3375L54.7337 42.4863L54.7378 42.4734L54.7411 42.4603L54.2564 42.3375ZM54.2484 42.3646L54.7277 42.5071L54.7288 42.503L54.2484 42.3646ZM54.2483 42.365L53.769 42.2225L53.7678 42.2267L54.2483 42.365ZM35.8704 38.2061V38.7061H36.2389L36.348 38.3541L35.8704 38.2061ZM33.4387 38.2061H32.9387V38.7061H33.4387V38.2061ZM33.4387 4.64475L33.8685 4.3893L32.9387 2.82478V4.64475H33.4387ZM31.5573 38.2062V38.7062H32.0573V38.2062H31.5573ZM31.5573 4.88841H32.0573V3.02432L31.1244 4.63819L31.5573 4.88841ZM29.2644 38.2062L28.7868 38.3541L28.8959 38.7062H29.2644V38.2062ZM51.2344 42.9572L51.711 43.1085L51.9477 42.3631L51.1718 42.4611L51.2344 42.9572ZM51.2296 42.9722L50.7531 42.8209L50.7531 42.821L51.2296 42.9722ZM51.2337 42.9573L50.7571 42.806L50.5205 43.5513L51.2963 43.4533L51.2337 42.9573ZM51.9956 41.6366L52.3231 42.0144L52.6866 41.6993L52.3858 41.3239L51.9956 41.6366ZM38.1324 37.1826L38.1578 36.6832L37.7592 36.663L37.6511 37.0472L38.1324 37.1826ZM37.4575 39.42L37.9332 39.574L37.9332 39.5738L37.4575 39.42ZM27.6745 39.42L27.1983 39.5724L27.1988 39.5739L27.6745 39.42ZM27.0466 37.3358L27.5275 37.1987L27.4137 36.7995L27.0004 36.8379L27.0466 37.3358ZM17.1834 40.6571L16.8799 40.2597L16.7156 40.3852L16.6879 40.5901L17.1834 40.6571ZM17.162 40.8199L17.6579 40.8841L17.6579 40.8841L17.162 40.8199ZM17.1269 41.0818L16.6319 41.0113L16.6315 41.0148L17.1269 41.0818ZM16.9223 43.361L16.423 43.3863L16.4645 44.2054L17.1736 43.7933L16.9223 43.361ZM17.5503 42.681L17.1518 42.3789L17.1504 42.3808L17.5503 42.681ZM17.5536 42.6766L17.9521 42.9786L17.9521 42.9786L17.5536 42.6766ZM22.4879 42.6765L22.8864 42.3745L22.8863 42.3745L22.4879 42.6765ZM22.4913 42.681L22.8905 42.3799L22.8898 42.379L22.4913 42.681ZM24.415 42.681L24.0166 42.3789L24.0166 42.379L24.415 42.681ZM24.4184 42.6766L24.8168 42.9786L24.8168 42.9786L24.4184 42.6766ZM29.3526 42.6765L29.7511 42.3745L29.7511 42.3745L29.3526 42.6765ZM29.356 42.681L28.9576 42.983L28.9576 42.983L29.356 42.681ZM31.2798 42.681L31.6783 42.983L31.679 42.9821L31.2798 42.681ZM36.2151 42.6765L35.8166 42.9786L35.8166 42.9786L36.2151 42.6765ZM36.2185 42.681L36.6175 42.3797L36.6169 42.3789L36.2185 42.681ZM38.1446 42.6834L38.543 42.9854L38.543 42.9854L38.1446 42.6834ZM38.1479 42.6789L37.7495 42.3769L37.7495 42.3769L38.1479 42.6789ZM43.0822 42.6789L42.6837 42.9809L42.6839 42.9811L43.0822 42.6789ZM43.0856 42.6834L43.4848 42.3823L43.4839 42.3811L43.0856 42.6834ZM45.0117 42.681L45.4107 42.9823L45.4108 42.9821L45.0117 42.681ZM49.9493 42.6765L50.3478 42.3746L50.3478 42.3745L49.9493 42.6765ZM49.9527 42.681L49.5542 42.9829L49.5542 42.983L49.9527 42.681ZM51.058 43.426L51.2563 43.885L51.3599 43.8403L51.4343 43.7553L51.058 43.426ZM54.6305 42.7488C54.6616 42.6925 54.6848 42.6364 54.7019 42.5857L53.7545 42.2657C53.7538 42.2678 53.7533 42.269 53.7531 42.2693C53.753 42.2696 53.7536 42.2681 53.7553 42.2651L54.6305 42.7488ZM54.4117 42.9962C54.5612 42.8979 54.6245 42.7613 54.6389 42.7329L53.7469 42.2809C53.733 42.3083 53.7691 42.222 53.8621 42.1608L54.4117 42.9962ZM54.5286 42.8915C54.537 42.8797 54.5468 42.8655 54.5572 42.8494L53.7166 42.3076C53.7162 42.3083 53.7151 42.3099 53.7127 42.3133L54.5286 42.8915ZM54.5072 42.9212C54.5123 42.9142 54.5203 42.9032 54.5287 42.8914L53.7126 42.3135C53.7099 42.3174 53.7068 42.3215 53.7008 42.3298L54.5072 42.9212ZM54.4953 42.9375C54.4981 42.9335 54.5013 42.9292 54.5071 42.9213L53.7009 42.3297C53.6957 42.3366 53.6879 42.3473 53.6797 42.3588L54.4953 42.9375ZM54.4324 43.0155C54.4485 42.9966 54.4634 42.9785 54.476 42.963L53.6991 42.3333C53.6893 42.3453 53.6803 42.3563 53.6718 42.3662L54.4324 43.0155ZM54.3959 43.057C54.4089 43.0426 54.4212 43.0286 54.4324 43.0155L53.6719 42.3662C53.6661 42.373 53.6611 42.3786 53.6569 42.3832L54.3959 43.057ZM54.2974 43.1516C54.3312 43.122 54.36 43.0934 54.3776 43.076L53.6752 42.3642C53.6552 42.384 53.6463 42.3925 53.6378 42.4L54.2974 43.1516ZM54.1839 43.2447C54.2251 43.2151 54.2722 43.1776 54.3188 43.1317L53.6164 42.4199C53.6164 42.4199 53.6151 42.4211 53.6123 42.4234C53.6096 42.4257 53.6057 42.4287 53.6007 42.4323L54.1839 43.2447ZM54.123 43.2845C54.1381 43.275 54.1531 43.2654 54.1671 43.2562L53.6176 42.4207C53.6103 42.4255 53.6017 42.431 53.5927 42.4367L54.123 43.2845ZM54.0766 43.3128C54.0923 43.3035 54.1081 43.2938 54.1231 43.2844L53.5926 42.4368C53.5835 42.4424 53.5747 42.4478 53.567 42.4524L54.0766 43.3128ZM54.0268 43.3397C54.033 43.3363 54.0364 43.3344 54.0395 43.3328C54.0423 43.3313 54.0433 43.3308 54.0431 43.3309L53.6005 42.4342C53.5774 42.4456 53.5566 42.4571 53.5464 42.4627L54.0268 43.3397ZM53.9443 43.3817C53.9813 43.3649 54.013 43.3473 54.0268 43.3397L53.5464 42.4627C53.5378 42.4674 53.534 42.4694 53.5308 42.4711C53.5281 42.4725 53.5282 42.4724 53.5299 42.4716L53.9443 43.3817ZM53.843 43.4225C53.8596 43.4166 53.9082 43.3998 53.9583 43.3751L53.5159 42.4783C53.523 42.4748 53.5269 42.4733 53.5251 42.474C53.5243 42.4744 53.5226 42.475 53.5195 42.4762C53.5161 42.4774 53.5125 42.4787 53.5069 42.4807L53.843 43.4225ZM53.8253 43.4289C53.8289 43.4275 53.8333 43.4259 53.8431 43.4225L53.5069 42.4807C53.4985 42.4836 53.4848 42.4885 53.4702 42.4941L53.8253 43.4289ZM53.8266 43.4285C53.83 43.427 53.8301 43.427 53.8297 43.4271C53.8289 43.4275 53.8258 43.4287 53.8213 43.4304L53.4742 42.4926C53.4541 42.5 53.4366 42.5076 53.4324 42.5095L53.8266 43.4285ZM53.6984 43.4708C53.7655 43.4561 53.8188 43.4318 53.8267 43.4284L53.4322 42.5095C53.4245 42.5128 53.43 42.5103 53.4376 42.5075C53.447 42.504 53.4632 42.4986 53.4842 42.494L53.6984 43.4708ZM53.6851 43.4702C53.6537 43.4779 53.6264 43.4811 53.6061 43.4825C53.5964 43.4832 53.5886 43.4834 53.584 43.4835C53.58 43.4836 53.5766 43.4835 53.5784 43.4835C53.5787 43.4835 53.5841 43.4836 53.5902 43.4834C53.5969 43.4833 53.6067 43.483 53.6186 43.4822C53.6432 43.4806 53.6749 43.4767 53.711 43.4678L53.4716 42.4969C53.503 42.4892 53.5303 42.4859 53.5507 42.4845C53.5604 42.4839 53.5681 42.4837 53.5727 42.4836C53.5768 42.4835 53.5801 42.4835 53.5784 42.4835C53.578 42.4835 53.5727 42.4835 53.5666 42.4836C53.5599 42.4838 53.55 42.484 53.5382 42.4848C53.5136 42.4865 53.4819 42.4903 53.4457 42.4992L53.6851 43.4702ZM53.3397 43.5149C53.4673 43.5149 53.5847 43.4958 53.6888 43.4692L53.442 42.5002C53.4004 42.5108 53.3672 42.5149 53.3397 42.5149V43.5149ZM53.1962 43.0311C53.3944 43.4902 53.3942 43.4903 53.394 43.4904C53.3939 43.4904 53.3937 43.4905 53.3935 43.4906C53.3932 43.4907 53.3929 43.4908 53.3926 43.4909C53.392 43.4912 53.3914 43.4915 53.3908 43.4917C53.3896 43.4922 53.3884 43.4927 53.3872 43.4932C53.3848 43.4942 53.3825 43.4951 53.3803 43.496C53.3757 43.4978 53.3714 43.4994 53.3672 43.5009C53.3589 43.5039 53.3514 43.5063 53.3448 43.5083C53.3316 43.5122 53.3219 43.5142 53.3166 43.5151C53.3061 43.517 53.3121 43.5149 53.3397 43.5149V42.5149C53.2615 42.5149 53.1957 42.5209 53.14 42.5309C53.112 42.5359 53.0863 42.5419 53.0627 42.5489C53.0509 42.5523 53.0397 42.556 53.0289 42.5599C53.0235 42.5618 53.0182 42.5638 53.0131 42.5659C53.0105 42.5669 53.008 42.5679 53.0055 42.5689C53.0042 42.5695 53.003 42.57 53.0017 42.5705C53.0011 42.5708 53.0005 42.571 52.9999 42.5713C52.9996 42.5714 52.9992 42.5716 52.9989 42.5717C52.9988 42.5718 52.9986 42.5719 52.9985 42.5719C52.9982 42.572 52.998 42.5721 53.1962 43.0311ZM53.5012 43.6362C53.5266 43.556 53.556 43.4636 53.5838 43.3857C53.5978 43.3465 53.6088 43.3182 53.6164 43.3008C53.6202 43.292 53.6209 43.2915 53.6182 43.2963C53.6168 43.2989 53.6131 43.3056 53.6071 43.3149C53.6016 43.3233 53.5902 43.3402 53.5725 43.3604L52.82 42.7018C52.7514 42.7801 52.7118 42.8736 52.6999 42.9009C52.679 42.9487 52.6592 43.0014 52.6419 43.0498C52.6072 43.1472 52.5724 43.257 52.548 43.3337L53.5012 43.6362ZM53.4964 43.6513L53.5012 43.6363L52.5481 43.3336L52.5433 43.3486L53.4964 43.6513ZM50.9033 45.7871C51.8313 45.7871 52.4535 45.4158 52.8578 44.9316C53.2411 44.4725 53.4065 43.9357 53.4966 43.6507L52.5431 43.3492C52.4498 43.6444 52.3318 44.0012 52.0901 44.2907C51.8695 44.555 51.5251 44.7871 50.9033 44.7871V45.7871ZM48.0389 44.085C48.515 44.713 49.3083 45.7871 50.9033 45.7871V44.7871C49.8471 44.7871 49.3234 44.124 48.8358 43.4809L48.0389 44.085ZM48.0355 44.0805L48.0389 44.085L48.8358 43.4809L48.8324 43.4764L48.0355 44.0805ZM47.4721 43.5148C47.5156 43.5148 47.5319 43.5199 47.5375 43.5218C47.5427 43.5236 47.5595 43.5299 47.5944 43.5584C47.6814 43.6295 47.8024 43.7702 48.0342 44.0787L48.8338 43.4782C48.614 43.1855 48.4234 42.9444 48.227 42.784C47.9919 42.5919 47.7512 42.5148 47.4721 42.5148V43.5148ZM46.9087 44.0781C47.1422 43.7701 47.2632 43.6295 47.3506 43.5582C47.3855 43.5297 47.4022 43.5235 47.4072 43.5217C47.4125 43.5199 47.4286 43.5148 47.4721 43.5148V42.5148C47.1927 42.5148 46.9527 42.592 46.7181 42.7836C46.5227 42.9432 46.3321 43.1833 46.1117 43.474L46.9087 44.0781ZM46.9052 44.0826L46.9086 44.0782L46.1118 43.4739L46.1085 43.4784L46.9052 44.0826ZM44.0385 45.7847C45.6357 45.7847 46.429 44.7108 46.9053 44.0825L46.1084 43.4784C45.6211 44.1213 45.0973 44.7847 44.0385 44.7847V45.7847ZM41.1741 44.0826C41.6502 44.7106 42.4435 45.7847 44.0385 45.7847V44.7847C42.9823 44.7847 42.4586 44.1216 41.971 43.4785L41.1741 44.0826ZM41.1708 44.0782L41.1742 44.0827L41.971 43.4784L41.9676 43.4739L41.1708 44.0782ZM40.6073 43.5148C40.6508 43.5148 40.6672 43.5199 40.6729 43.5219C40.6782 43.5237 40.6952 43.5301 40.7301 43.5585C40.8171 43.6294 40.9382 43.7697 41.17 44.0771L41.9684 43.475C41.7487 43.1836 41.5581 42.9433 41.3618 42.7833C41.1268 42.5918 40.8864 42.5148 40.6073 42.5148V43.5148ZM40.0445 44.0797C40.2774 43.7712 40.3993 43.6299 40.4868 43.5584C40.522 43.5297 40.5389 43.5234 40.5439 43.5216C40.5491 43.5198 40.5648 43.5148 40.6073 43.5148V42.5148C40.3284 42.5148 40.0886 42.5925 39.8541 42.784C39.6583 42.944 39.4673 43.1846 39.2464 43.4772L40.0445 44.0797ZM37.1761 45.7871C38.7746 45.7871 39.5701 44.7085 40.0446 44.0796L39.2463 43.4773C38.7612 44.1203 38.235 44.7871 37.1761 44.7871V45.7871ZM34.3094 44.085C34.7856 44.7132 35.5789 45.7871 37.1761 45.7871V44.7871C36.1173 44.7871 35.5936 44.1237 35.1063 43.4809L34.3094 44.085ZM34.3062 44.0807L34.3095 44.0852L35.1061 43.4806L35.1027 43.4762L34.3062 44.0807ZM33.7426 43.5172C33.7861 43.5172 33.8024 43.5223 33.8081 43.5242C33.8135 43.5261 33.8304 43.5325 33.8653 43.5609C33.9524 43.6318 34.0734 43.7721 34.3052 44.0795L35.1036 43.4774C34.8839 43.186 34.6933 42.9457 34.497 42.7857C34.262 42.5942 34.0216 42.5172 33.7426 42.5172V43.5172ZM33.1791 44.0805C33.4126 43.7724 33.5337 43.6319 33.6211 43.5606C33.656 43.5321 33.6727 43.5258 33.6777 43.5241C33.683 43.5223 33.699 43.5172 33.7426 43.5172V42.5172C33.4631 42.5172 33.2232 42.5944 32.9886 42.786C32.7931 42.9456 32.6026 43.1856 32.3822 43.4764L33.1791 44.0805ZM30.3113 45.7871C31.9124 45.7871 32.7056 44.7082 33.1798 44.0796L32.3815 43.4773C31.8962 44.1206 31.3724 44.7871 30.3113 44.7871V45.7871ZM27.447 44.085C27.923 44.713 28.7163 45.7871 30.3113 45.7871V44.7871C29.2551 44.7871 28.7314 44.124 28.2439 43.4809L27.447 44.085ZM27.4435 44.0805L27.4469 44.0849L28.2439 43.4809L28.2405 43.4764L27.4435 44.0805ZM26.8801 43.5172C26.9236 43.5172 26.94 43.5223 26.9457 43.5242C26.9511 43.5261 26.968 43.5325 27.0029 43.5609C27.0899 43.6318 27.211 43.7721 27.4428 44.0795L28.2412 43.4774C28.0215 43.186 27.8309 42.9457 27.6346 42.7857C27.3996 42.5942 27.1592 42.5172 26.8801 42.5172V43.5172ZM26.3173 44.0821C26.5503 43.7736 26.6721 43.6323 26.7596 43.5608C26.7948 43.5321 26.8117 43.5257 26.8167 43.524C26.8219 43.5222 26.8376 43.5172 26.8801 43.5172V42.5172C26.6012 42.5172 26.3614 42.5948 26.1269 42.7864C25.9311 42.9464 25.7401 43.187 25.5192 43.4795L26.3173 44.0821ZM23.4489 45.7895C25.0475 45.7895 25.8429 44.7109 26.3174 44.0819L25.5191 43.4797C25.034 44.1227 24.5079 44.7895 23.4489 44.7895V45.7895ZM20.5845 44.0874C21.0606 44.7153 21.8539 45.7895 23.4489 45.7895V44.7895C22.3927 44.7895 21.869 44.1264 21.3814 43.4832L20.5845 44.0874ZM20.5811 44.0828L20.5845 44.0873L21.3815 43.4833L21.3781 43.4788L20.5811 44.0828ZM20.0177 43.5196C20.0612 43.5196 20.0776 43.5246 20.0833 43.5266C20.0886 43.5285 20.1056 43.5348 20.1405 43.5633C20.2275 43.6342 20.3486 43.7745 20.5804 44.0819L21.3788 43.4798C21.159 43.1884 20.9685 42.948 20.7722 42.788C20.5372 42.5966 20.2967 42.5196 20.0177 42.5196V43.5196ZM19.4549 44.0845C19.6878 43.7759 19.8097 43.6347 19.8972 43.5632C19.9324 43.5344 19.9493 43.5281 19.9543 43.5264C19.9595 43.5245 19.9752 43.5196 20.0177 43.5196V42.5196C19.7388 42.5196 19.499 42.5972 19.2645 42.7888C19.0687 42.9488 18.8777 43.1893 18.6568 43.4819L19.4549 44.0845ZM16.5865 45.7919C18.185 45.7919 18.9805 44.7133 19.455 44.0843L18.6567 43.4821C18.1716 44.125 17.6454 44.7919 16.5865 44.7919V45.7919ZM15.1369 45.147C15.5057 45.5648 16.0274 45.7919 16.5865 45.7919V44.7919C16.3036 44.7919 16.0587 44.6801 15.8866 44.4852L15.1369 45.147ZM14.7623 40.7613C14.6283 41.7482 14.521 42.6014 14.5374 43.304C14.5539 44.0116 14.6962 44.6513 15.1381 45.1483L15.8854 44.4839C15.6711 44.2429 15.5512 43.8845 15.5371 43.2807C15.5229 42.672 15.6168 41.9005 15.7532 40.8959L14.7623 40.7613ZM14.7668 40.7277L14.7622 40.7622L15.7533 40.895L15.7579 40.8606L14.7668 40.7277ZM14.9597 38.4856C14.9792 38.7001 14.9599 39.0652 14.9169 39.4981C14.8751 39.9198 14.8153 40.3661 14.7668 40.7277L15.7579 40.8606C15.806 40.5016 15.8682 40.0384 15.912 39.5969C15.9547 39.1667 15.9847 38.7151 15.9556 38.3951L14.9597 38.4856ZM10.3598 45.0091C10.9923 43.7731 11.92 42.303 12.8993 41.1068C13.389 40.5086 13.8828 39.9897 14.3503 39.6044C14.8265 39.212 15.2341 38.9926 15.5523 38.9313L15.363 37.9494C14.8029 38.0574 14.2401 38.3994 13.7143 38.8327C13.1799 39.2732 12.6403 39.8445 12.1255 40.4733C11.0959 41.731 10.1304 43.2621 9.46955 44.5536L10.3598 45.0091ZM9.0751 45.792C9.61085 45.792 10.1132 45.4959 10.3607 45.0073L9.46861 44.5554C9.39631 44.6982 9.24488 44.792 9.0751 44.792V45.792ZM8.95739 45.7859C9.01176 45.7926 9.0613 45.792 9.0751 45.792V44.792C9.07008 44.792 9.06731 44.792 9.06485 44.792C9.06262 44.7919 9.06198 44.7919 9.06231 44.7919C9.06281 44.792 9.06956 44.7922 9.07994 44.7934L8.95739 45.7859ZM7.72113 44.8529C7.91811 45.3929 8.42164 45.7571 8.9908 45.7889L9.04652 44.7904C8.86784 44.7805 8.71759 44.6665 8.66058 44.5102L7.72113 44.8529ZM7.63033 35.6578C6.56284 37.2723 6.57007 39.4724 6.82247 41.2464C7.07858 43.0465 7.60804 44.5445 7.72142 44.8537L8.66029 44.5094C8.55732 44.2286 8.05437 42.8056 7.8125 41.1056C7.56693 39.3796 7.61062 37.5007 8.46448 36.2093L7.63033 35.6578ZM11.3926 33.6288C9.7713 33.7323 8.44993 34.4206 7.63057 35.6574L8.46423 36.2097C9.08412 35.274 10.0957 34.7136 11.4563 34.6268L11.3926 33.6288ZM12.9641 33.2372C12.9868 33.1826 12.9702 33.2694 12.6823 33.385C12.4216 33.4898 12.0052 33.5893 11.3923 33.6288L11.4567 34.6268C12.1396 34.5827 12.6674 34.4687 13.0551 34.3129C13.4158 34.1681 13.7519 33.9473 13.8875 33.6211L12.9641 33.2372ZM12.7449 32.9778C12.8467 33.0918 12.9061 33.1928 12.9332 33.2619C12.9465 33.2958 12.9481 33.3123 12.9481 33.312C12.9481 33.312 12.9455 33.2821 12.9641 33.2373L13.8875 33.6211C13.9971 33.3574 13.9385 33.0866 13.8643 32.8973C13.7844 32.693 13.6521 32.4923 13.4906 32.3115L12.7449 32.9778ZM9.19756 32.1876C10.8112 31.7548 12.1784 32.3418 12.7444 32.9773L13.4911 32.3121C12.6554 31.3739 10.8901 30.6983 8.9385 31.2218L9.19756 32.1876ZM3.37405 39.1291C3.81949 37.5256 4.70813 35.9313 5.78487 34.6602C6.86901 33.3804 8.09831 32.4809 9.19693 32.1878L8.93913 31.2216C7.56595 31.588 6.17421 32.6534 5.02184 34.0138C3.86208 35.3829 2.89874 37.104 2.41054 38.8614L3.37405 39.1291ZM3.90422 43.3648C3.35293 42.8064 3.13101 42.0587 3.09635 41.2693C3.06164 40.4789 3.21789 39.6934 3.37419 39.1286L2.41041 38.8619C2.23979 39.4784 2.0562 40.3769 2.09731 41.3132C2.13848 42.2507 2.40806 43.2727 3.19258 44.0674L3.90422 43.3648ZM3.87622 45.3901C4.44791 44.8402 4.4625 43.9337 3.90526 43.3659L3.19154 44.0663C3.35862 44.2366 3.35441 44.5045 3.18296 44.6694L3.87622 45.3901ZM1.84281 45.3626C2.39985 45.9265 3.30458 45.9365 3.87508 45.3912L3.18409 44.6683C3.00674 44.8379 2.72625 44.834 2.55426 44.6598L1.84281 45.3626ZM0.594981 38.3718C-0.184694 41.1796 0.200407 43.7004 1.84287 45.3626L2.55419 44.6598C1.24758 43.3374 0.837792 41.2349 1.55852 38.6394L0.594981 38.3718ZM8.4476 29.4301C6.58188 29.9274 4.86762 31.2834 3.50926 32.9235C2.14675 34.5685 1.10087 36.5485 0.594952 38.3719L1.55855 38.6393C2.02373 36.9626 2.99913 35.1071 4.2794 33.5614C5.56382 32.0106 7.11383 30.8205 8.70515 30.3964L8.4476 29.4301ZM14.9043 31.087C13.668 29.6989 11.204 28.6948 8.44749 29.4301L8.70526 30.3963C11.099 29.7578 13.1738 30.6475 14.1575 31.7521L14.9043 31.087ZM15.6269 34.3334C16.0845 33.2438 15.7664 32.0523 14.9038 31.0865L14.158 31.7526C14.8335 32.509 14.9764 33.2997 14.7049 33.9462L15.6269 34.3334ZM11.5787 36.4816C14.1311 36.3175 15.2168 35.3079 15.6267 34.3337L14.705 33.9458C14.4801 34.4804 13.7972 35.3369 11.5145 35.4837L11.5787 36.4816ZM10.0419 37.227C10.326 36.7988 10.7888 36.5325 11.5788 36.4816L11.5144 35.4837C10.503 35.5489 9.71 35.9185 9.20863 36.6741L10.0419 37.227ZM9.86506 41.8623C9.68954 41.0358 9.56068 40.12 9.56846 39.2767C9.57635 38.4216 9.72453 37.7065 10.0422 37.2264L9.20828 36.6746C8.73345 37.3921 8.57708 38.3377 8.5685 39.2675C8.55982 40.209 8.70258 41.2022 8.88688 42.07L9.86506 41.8623ZM15.8422 36.0631C14.3505 36.0172 12.9626 36.9318 11.8214 38.0377C10.664 39.1592 9.66744 40.5679 8.95318 41.6993L9.79876 42.2331C10.4956 41.1293 11.4428 39.7969 12.5173 38.7558C13.6078 37.6991 14.7398 37.0297 15.8115 37.0626L15.8422 36.0631ZM17.2584 36.7373C16.9008 36.3182 16.3932 36.0816 15.8436 36.0632L15.81 37.0626C16.0882 37.072 16.3285 37.1882 16.4977 37.3864L17.2584 36.7373ZM17.8156 38.2096C17.763 37.66 17.6125 37.1492 17.2572 36.7359L16.4989 37.3879C16.6704 37.5873 16.7786 37.8703 16.8201 38.3048L17.8156 38.2096ZM26.5108 35.0139C21.4607 35.517 18.8544 36.6566 17.0444 37.8385L17.5912 38.6758C19.243 37.5972 21.6888 36.4993 26.6099 36.009L26.5108 35.0139ZM31.3974 0.876671C30.8767 1.48226 20.617 13.809 26.0753 35.6328L27.0454 35.3901C21.6948 13.9972 31.7544 1.99529 32.1557 1.52859L31.3974 0.876671ZM31.4804 0.798687C31.4785 0.80018 31.4527 0.819749 31.4253 0.846731L32.1277 1.55853C32.1172 1.56885 32.1082 1.57664 32.1024 1.58153C32.0973 1.58573 32.0931 1.58895 32.0959 1.58682L31.4804 0.798687ZM31.4043 0.876888C31.4262 0.848033 31.4475 0.827212 31.4621 0.814145C31.4744 0.803136 31.4853 0.794827 31.4804 0.798692L32.0959 1.58682C32.0962 1.58659 32.1122 1.57431 32.1293 1.55901C32.1487 1.54165 32.1744 1.51621 32.2005 1.48195L31.4043 0.876888ZM31.5689 0.7144C31.5281 0.748438 31.4836 0.78823 31.4372 0.837892L32.1676 1.52094C32.1776 1.51026 32.1895 1.49899 32.2099 1.48197L31.5689 0.7144ZM31.6734 0.631745C31.6162 0.669364 31.5717 0.709224 31.5382 0.742309L32.2406 1.45406C32.2447 1.45001 32.2379 1.45737 32.223 1.46714L31.6734 0.631745ZM31.7951 0.55985C31.7674 0.575105 31.7214 0.600156 31.6734 0.631736L32.223 1.46715C32.2328 1.4607 32.2445 1.45395 32.2772 1.43599L31.7951 0.55985ZM31.8148 0.549014L31.7946 0.560159L32.2778 1.43568L32.298 1.42453L31.8148 0.549014ZM31.9143 0.496391C31.8562 0.521868 31.8087 0.552091 31.7939 0.561223L32.3189 1.41233C32.3239 1.40923 32.3267 1.40752 32.3291 1.40602C32.3314 1.40466 32.3321 1.40425 32.3319 1.40438C32.3314 1.40464 32.3256 1.40797 32.316 1.41217L31.9143 0.496391ZM32.1318 0.424738C32.0654 0.441105 31.9959 0.462378 31.9233 0.492557L32.307 1.416C32.3238 1.40905 32.3436 1.40247 32.3713 1.39562L32.1318 0.424738ZM32.1282 0.426457C32.1209 0.428856 32.1257 0.427204 32.1323 0.425338C32.1399 0.423194 32.1577 0.418475 32.1817 0.415077L32.3214 1.40528C32.3843 1.39641 32.4383 1.37718 32.4407 1.37637L32.1282 0.426457ZM32.124 0.42785L32.124 0.427864L32.4449 1.37496L32.445 1.37495L32.124 0.42785ZM32.1653 0.41501C32.1477 0.419965 32.132 0.42522 32.1283 0.426428L32.4407 1.37637C32.4439 1.37533 32.4441 1.37527 32.4439 1.37534C32.4434 1.37549 32.4407 1.37635 32.4366 1.3775L32.1653 0.41501ZM32.4985 0.375366C32.396 0.375366 32.2942 0.385851 32.1938 0.407865L32.4081 1.38464C32.4347 1.37881 32.4645 1.37537 32.4985 1.37537V0.375366ZM32.6539 0.380287L32.5152 0.375646L32.4818 1.37509L32.6205 1.37973L32.6539 0.380287ZM33.7344 0.8822C33.4587 0.560021 33.0578 0.380008 32.6372 0.380008V1.38001C32.7716 1.38001 32.8928 1.43674 32.9746 1.53233L33.7344 0.8822ZM39.1031 35.4666C44.4639 13.7482 34.2543 1.48404 33.7329 0.880412L32.9761 1.53412C33.3765 1.99763 43.3871 13.9378 38.1322 35.2269L39.1031 35.4666ZM54.7431 41.722C54.6817 41.4988 54.1759 39.9697 51.9036 38.4008C49.6386 36.8368 45.647 35.2526 38.6465 34.8476L38.5888 35.8459C45.4679 36.2439 49.2651 37.7941 51.3354 39.2237C52.37 39.938 52.9788 40.6258 53.3293 41.1338C53.5049 41.3884 53.6166 41.5993 53.6849 41.748C53.719 41.8224 53.7423 41.8813 53.7573 41.9222C53.7647 41.9427 53.7701 41.9587 53.7737 41.9699C53.7754 41.9755 53.7768 41.9798 53.7777 41.9828C53.7781 41.9843 53.7785 41.9855 53.7787 41.9863C53.7788 41.9867 53.7789 41.987 53.779 41.9872C53.779 41.9874 53.779 41.9875 53.779 41.9875L54.7431 41.722ZM54.7603 41.8139C54.7602 41.8126 54.759 41.8021 54.7573 41.7903C54.7556 41.7781 54.7522 41.7572 54.7458 41.7321L53.7764 41.9774C53.7712 41.9569 53.7687 41.9409 53.7677 41.9338C53.7667 41.9271 53.7661 41.9218 53.7666 41.9257L54.7603 41.8139ZM54.7588 41.8033C54.7596 41.8084 54.7601 41.8121 54.7603 41.8137C54.7604 41.8151 54.7605 41.816 54.7603 41.8142L53.7666 41.9255C53.7667 41.9265 53.768 41.9392 53.7702 41.9533L54.7588 41.8033ZM54.7506 41.7624C54.7553 41.781 54.7577 41.7957 54.7588 41.8031L53.7702 41.9535C53.772 41.9655 53.7753 41.9846 53.781 42.0074L54.7506 41.7624ZM54.7739 41.8984L54.7598 41.8079L53.7718 41.9619L53.7859 42.0524L54.7739 41.8984ZM54.7893 42.0729C54.7893 41.9983 54.7785 41.93 54.7747 41.9038L53.7851 42.0471C53.7863 42.0556 53.7871 42.0615 53.7879 42.067C53.7886 42.0723 53.789 42.0758 53.7893 42.0781C53.7898 42.0831 53.7893 42.0803 53.7893 42.0729H54.7893ZM54.7891 42.0556L54.7888 42.0497L53.7899 42.0962L53.7901 42.1021L54.7891 42.0556ZM54.7873 42.0308L54.7864 42.0228L53.7927 42.135L53.7936 42.1429L54.7873 42.0308ZM54.7874 42.0312L54.7868 42.0265L53.7941 42.1472L53.7947 42.1519L54.7874 42.0312ZM54.7917 42.1008C54.7917 42.0708 54.7892 42.0468 54.788 42.0361L53.7941 42.147C53.7936 42.1425 53.7917 42.1246 53.7917 42.1008H54.7917ZM54.7836 42.2122C54.7853 42.1994 54.7917 42.1541 54.7917 42.1008H53.7917C53.7917 42.0898 53.7923 42.0815 53.7927 42.0779C53.7928 42.0764 53.7929 42.0758 53.7927 42.0771C53.7925 42.0786 53.7923 42.0805 53.7917 42.0849L54.7836 42.2122ZM54.7877 42.1486V42.1485H53.7877V42.1486H54.7877ZM54.783 42.2174L54.7837 42.2118L53.7917 42.0854L53.791 42.0909L54.783 42.2174ZM54.7854 42.1935L54.7857 42.1902L53.7883 42.1181L53.788 42.1214L54.7854 42.1935ZM54.7638 42.3601C54.7795 42.288 54.7836 42.2184 54.7854 42.1935L53.788 42.1215C53.7874 42.1297 53.787 42.1355 53.7866 42.141C53.7861 42.1463 53.7858 42.1499 53.7855 42.1524C53.7849 42.1581 53.785 42.1554 53.7866 42.1478L54.7638 42.3601ZM54.7411 42.4603C54.7473 42.4359 54.7596 42.3884 54.7682 42.3372L53.7822 42.1707C53.7814 42.1752 53.7796 42.1834 53.7717 42.2147L54.7411 42.4603ZM54.7288 42.503C54.7317 42.4932 54.7328 42.4893 54.7337 42.4863L53.779 42.1887C53.7744 42.2038 53.7703 42.218 53.7679 42.2261L54.7288 42.503ZM54.7275 42.5075L54.7276 42.5071L53.7691 42.2221L53.769 42.2225L54.7275 42.5075ZM54.6888 42.6202C54.7106 42.5686 54.7242 42.519 54.7287 42.5033L53.7678 42.2267C53.7662 42.2321 53.7652 42.2356 53.7643 42.2387C53.7634 42.2416 53.763 42.243 53.7628 42.2435C53.7624 42.2447 53.764 42.2397 53.7675 42.2313L54.6888 42.6202ZM35.8704 37.7061H33.4387V38.7061H35.8704V37.7061ZM33.0089 4.9002C35.7037 9.43453 40.6966 20.9396 35.3928 38.0581L36.348 38.3541C41.7544 20.9047 36.672 9.10651 33.8685 4.3893L33.0089 4.9002ZM33.9387 38.2061V4.64475H32.9387V38.2061H33.9387ZM32.0573 38.2062V4.88841H31.0573V38.2062H32.0573ZM29.2644 38.7062H31.5573V37.7062H29.2644V38.7062ZM31.1244 4.63819C28.3013 9.52218 23.485 21.2441 28.7868 38.3541L29.742 38.0582C24.5409 21.2729 29.2727 9.83987 31.9902 5.13864L31.1244 4.63819ZM50.7579 42.8058L50.7531 42.8209L51.7062 43.1236L51.711 43.1085L50.7579 42.8058ZM51.2963 43.4533L51.2971 43.4532L51.1718 42.4611L51.171 42.4612L51.2963 43.4533ZM51.6681 41.2587C51.0869 41.7625 50.8661 42.4627 50.7571 42.806L51.7102 43.1085C51.8223 42.7555 51.9777 42.3138 52.3231 42.0144L51.6681 41.2587ZM38.107 37.6819C47.5636 38.163 50.6862 40.8022 51.6054 41.9492L52.3858 41.3239C51.2219 39.8715 47.7739 37.1724 38.1578 36.6832L38.107 37.6819ZM37.9332 39.5738C38.1799 38.8106 38.4052 38.0594 38.6137 37.318L37.6511 37.0472C37.4457 37.7774 37.2241 38.5162 36.9817 39.2662L37.9332 39.5738ZM36.5614 40.5676C37.1851 40.5676 37.741 40.1677 37.9332 39.574L36.9817 39.2661C36.9245 39.4428 36.7561 39.5676 36.5614 39.5676V40.5676ZM28.5706 40.5676H36.5614V39.5676H28.5706V40.5676ZM27.1988 39.5739C27.3909 40.1678 27.9469 40.5676 28.5706 40.5676V39.5676C28.3758 39.5676 28.2074 39.4428 28.1503 39.2661L27.1988 39.5739ZM26.5658 37.4729C26.7621 38.1614 26.9706 38.8607 27.1983 39.5724L28.1508 39.2676C27.9269 38.5682 27.7215 37.8794 27.5275 37.1987L26.5658 37.4729ZM17.4869 41.0545C18.2992 40.434 19.2116 39.7754 20.6535 39.1977C22.1012 38.6177 24.1042 38.1113 27.0929 37.8336L27.0004 36.8379C23.9426 37.122 21.8407 37.6448 20.2816 38.2694C18.7168 38.8964 17.7208 39.6175 16.8799 40.2597L17.4869 41.0545ZM17.6579 40.8841C17.6649 40.8294 17.6718 40.7768 17.6789 40.724L16.6879 40.5901C16.6803 40.6461 16.6731 40.7015 16.6661 40.7558L17.6579 40.8841ZM17.6219 41.1524C17.6354 41.0581 17.6469 40.9688 17.6579 40.8841L16.6661 40.7558C16.6551 40.8413 16.6443 40.9244 16.6319 41.0113L17.6219 41.1524ZM17.4217 43.3357C17.3964 42.837 17.5275 41.8505 17.6224 41.1489L16.6315 41.0148C16.543 41.6686 16.3918 42.7709 16.423 43.3863L17.4217 43.3357ZM17.1504 42.3808C16.853 42.7771 16.7385 42.8895 16.6711 42.9287L17.1736 43.7933C17.4495 43.6329 17.6832 43.3369 17.9502 42.9811L17.1504 42.3808ZM17.1552 42.3745L17.1518 42.3789L17.9487 42.9831L17.9521 42.9786L17.1552 42.3745ZM20.0219 40.6723C18.4247 40.6723 17.6315 41.7462 17.1552 42.3745L17.9521 42.9786C18.4394 42.3358 18.9632 41.6723 20.0219 41.6723V40.6723ZM22.8863 42.3745C22.4103 41.7465 21.617 40.6723 20.0219 40.6723V41.6723C21.0782 41.6723 21.6019 42.3354 22.0894 42.9786L22.8863 42.3745ZM22.8898 42.379L22.8864 42.3745L22.0894 42.9785L22.0928 42.983L22.8898 42.379ZM23.4532 42.9422C23.4096 42.9422 23.3933 42.9372 23.3876 42.9352C23.3822 42.9333 23.3653 42.927 23.3304 42.8986C23.2433 42.8276 23.1223 42.6873 22.8905 42.3799L22.0921 42.982C22.3118 43.2734 22.5024 43.5138 22.6987 43.6738C22.9337 43.8652 23.1741 43.9422 23.4532 43.9422V42.9422ZM24.0166 42.379C23.7831 42.687 23.662 42.8276 23.5746 42.8989C23.5397 42.9274 23.523 42.9336 23.518 42.9353C23.5127 42.9372 23.4967 42.9422 23.4532 42.9422V43.9422C23.7326 43.9422 23.9725 43.865 24.2071 43.6735C24.4026 43.5139 24.5931 43.2738 24.8135 42.983L24.0166 42.379ZM24.02 42.3745L24.0166 42.3789L24.8135 42.9831L24.8168 42.9786L24.02 42.3745ZM26.8867 40.6723C25.2895 40.6723 24.4962 41.7462 24.0199 42.3745L24.8168 42.9786C25.3042 42.3358 25.828 41.6723 26.8867 41.6723V40.6723ZM29.7511 42.3745C29.275 41.7465 28.4818 40.6723 26.8867 40.6723V41.6723C27.943 41.6723 28.4667 42.3354 28.9542 42.9786L29.7511 42.3745ZM29.7545 42.379L29.7511 42.3745L28.9542 42.9785L28.9576 42.983L29.7545 42.379ZM30.3179 42.9422C30.2754 42.9422 30.2596 42.9373 30.2543 42.9354C30.2492 42.9336 30.2321 42.9272 30.1969 42.8986C30.1094 42.8272 29.9875 42.6864 29.7545 42.3789L28.9576 42.983C29.1785 43.2744 29.3694 43.5142 29.5652 43.6738C29.7995 43.8647 30.0391 43.9422 30.3179 43.9422V42.9422ZM30.8813 42.379C30.6479 42.687 30.5268 42.8276 30.4394 42.8989C30.4045 42.9274 30.3878 42.9336 30.3828 42.9353C30.3775 42.9372 30.3614 42.9422 30.3179 42.9422V43.9422C30.5973 43.9422 30.8373 43.865 31.0719 43.6735C31.2673 43.5139 31.4579 43.2738 31.6783 42.983L30.8813 42.379ZM33.7491 40.6723C32.1481 40.6723 31.3549 41.7512 30.8807 42.3799L31.679 42.9821C32.1642 42.3389 32.6881 41.6723 33.7491 41.6723V40.6723ZM36.6135 42.3745C36.1375 41.7465 35.3442 40.6723 33.7491 40.6723V41.6723C34.8054 41.6723 35.3291 42.3354 35.8166 42.9786L36.6135 42.3745ZM36.6169 42.3789L36.6135 42.3745L35.8166 42.9786L35.82 42.983L36.6169 42.3789ZM37.1827 42.9446C37.1392 42.9446 37.1229 42.9396 37.1172 42.9376C37.1119 42.9357 37.0949 42.9293 37.0598 42.9007C36.9722 42.8294 36.8505 42.6883 36.6175 42.3797L35.8194 42.9823C36.0403 43.2748 36.2314 43.5156 36.4279 43.6758C36.663 43.8675 36.9035 43.9446 37.1827 43.9446V42.9446ZM37.7461 42.3813C37.5126 42.6894 37.3915 42.8299 37.3042 42.9013C37.2693 42.9298 37.2526 42.936 37.2476 42.9377C37.2423 42.9396 37.2262 42.9446 37.1827 42.9446V43.9446C37.4621 43.9446 37.7021 43.8674 37.9367 43.6758C38.1321 43.5162 38.3226 43.2762 38.543 42.9854L37.7461 42.3813ZM37.7495 42.3769L37.7461 42.3813L38.543 42.9854L38.5464 42.981L37.7495 42.3769ZM40.6163 40.6747C39.0191 40.6747 38.2258 41.7486 37.7495 42.3769L38.5464 42.981C39.0337 42.3381 39.5575 41.6747 40.6163 41.6747V40.6747ZM43.4806 42.3768C43.0046 41.7488 42.2113 40.6747 40.6163 40.6747V41.6747C41.6725 41.6747 42.1962 42.3378 42.6837 42.9809L43.4806 42.3768ZM43.4839 42.3811L43.4805 42.3767L42.6839 42.9811L42.6873 42.9856L43.4839 42.3811ZM44.0475 42.9446C44.004 42.9446 43.9876 42.9396 43.9819 42.9376C43.9765 42.9357 43.9596 42.9294 43.9247 42.9009C43.8377 42.83 43.7166 42.6897 43.4848 42.3823L42.6864 42.9844C42.9061 43.2758 43.0967 43.5162 43.293 43.6761C43.528 43.8676 43.7684 43.9446 44.0475 43.9446V42.9446ZM44.6127 42.3797C44.3796 42.6883 44.2579 42.8293 44.1704 42.9007C44.1353 42.9293 44.1183 42.9357 44.1129 42.9376C44.1072 42.9396 44.091 42.9446 44.0475 42.9446V43.9446C44.3267 43.9446 44.5671 43.8675 44.8023 43.6757C44.9988 43.5156 45.1899 43.2748 45.4107 42.9823L44.6127 42.3797ZM47.481 40.6723C45.8825 40.6723 45.087 41.7509 44.6125 42.3799L45.4108 42.9821C45.8959 42.3392 46.4221 41.6723 47.481 41.6723V40.6723ZM50.3478 42.3745C49.8715 41.7462 49.0783 40.6723 47.481 40.6723V41.6723C48.5398 41.6723 49.0635 42.3357 49.5509 42.9786L50.3478 42.3745ZM50.3512 42.379L50.3478 42.3746L49.5508 42.9785L49.5542 42.9829L50.3512 42.379ZM50.9146 42.9422C50.872 42.9422 50.8563 42.9373 50.8509 42.9354C50.8458 42.9336 50.8288 42.9272 50.7936 42.8986C50.706 42.8272 50.5842 42.6864 50.3512 42.3789L49.5542 42.983C49.7751 43.2744 49.9661 43.5142 50.1619 43.6738C50.3962 43.8647 50.6358 43.9422 50.9146 43.9422V42.9422ZM51.058 43.426C50.8598 42.967 50.86 42.9669 50.8603 42.9668C50.8604 42.9667 50.8606 42.9666 50.8607 42.9666C50.861 42.9664 50.8613 42.9663 50.8616 42.9662C50.8623 42.9659 50.8629 42.9657 50.8635 42.9654C50.8647 42.9649 50.8659 42.9644 50.867 42.9639C50.8694 42.9629 50.8717 42.962 50.874 42.9611C50.8785 42.9593 50.8829 42.9577 50.887 42.9562C50.8953 42.9532 50.9029 42.9508 50.9095 42.9488C50.9227 42.945 50.9323 42.9429 50.9377 42.942C50.9482 42.9401 50.9422 42.9422 50.9146 42.9422V43.9422C50.9928 43.9422 51.0586 43.9363 51.1143 43.9263C51.1423 43.9212 51.1679 43.9152 51.1915 43.9082C51.2033 43.9048 51.2146 43.9011 51.2254 43.8972C51.2308 43.8953 51.2361 43.8933 51.2412 43.8912C51.2438 43.8902 51.2463 43.8892 51.2488 43.8882C51.2501 43.8877 51.2513 43.8871 51.2526 43.8866C51.2532 43.8863 51.2538 43.8861 51.2544 43.8858C51.2547 43.8857 51.255 43.8856 51.2553 43.8854C51.2555 43.8854 51.2557 43.8853 51.2558 43.8852C51.256 43.8851 51.2563 43.885 51.058 43.426ZM50.7531 42.821C50.7276 42.9011 50.6982 42.9935 50.6705 43.0714C50.6565 43.1107 50.6454 43.1389 50.6378 43.1563C50.634 43.1651 50.6334 43.1657 50.636 43.1608C50.6374 43.1582 50.6411 43.1515 50.6471 43.1423C50.6526 43.1338 50.6641 43.117 50.6818 43.0967L51.4343 43.7553C51.5028 43.677 51.5425 43.5835 51.5544 43.5562C51.5752 43.5084 51.5951 43.4557 51.6123 43.4074C51.6471 43.3099 51.6819 43.2001 51.7062 43.1235L50.7531 42.821Z" fill="#222532"/>
</g>
<defs>
<clipPath id="clip0">
<rect x="0.706451" y="0.875366" width="53.5852" height="44.4176" fill="white"/>
</clipPath>
</defs>
</svg>
