<svg width="47" height="48" viewBox="0 0 47 48" fill="none" xmlns="http://www.w3.org/2000/svg">
<g filter="url(#filter0_d)">
<path d="M42.0371 32.1882H33.7503C33.4851 32.1882 33.2688 32.4062 33.2688 32.6735C33.2688 32.9409 33.4851 33.1589 33.7503 33.1589H42.0371C42.3022 33.1589 42.5185 32.9409 42.5185 32.6735C42.5185 32.4062 42.3022 32.1882 42.0371 32.1882Z" fill="white"/>
<path d="M42.0371 38.3401H32.7459C32.4807 38.3401 32.2644 38.5581 32.2644 38.8254C32.2644 39.0927 32.4807 39.3107 32.7459 39.3107H42.0371C42.3023 39.3107 42.5185 39.0927 42.5185 38.8254C42.5185 38.5581 42.3023 38.3401 42.0371 38.3401Z" fill="white"/>
<path d="M4.48151 35.6917H11.9743C12.2395 35.6917 12.4558 35.4737 12.4558 35.2064C12.4558 34.9391 12.2395 34.7211 11.9743 34.7211H4.48151C4.21632 34.7211 4.00003 34.9391 4.00003 35.2064C4.00003 35.4756 4.21632 35.6917 4.48151 35.6917Z" fill="white"/>
<path fill-rule="evenodd" clip-rule="evenodd" d="M7.74484 0.534702C7.93101 0.441813 8.15295 0.479726 8.29965 0.627597L8.29989 0.627825C8.44471 0.775671 8.48232 1.00127 8.38828 1.18895C8.08924 1.79181 7.93878 2.43446 7.93878 3.09988C7.93878 5.47715 9.86846 7.41274 12.2383 7.41274C12.9022 7.41274 13.5435 7.25918 14.1454 6.95965C14.3315 6.86676 14.5535 6.90467 14.7002 7.05255C14.8469 7.20039 14.8826 7.42599 14.7905 7.61178C13.8933 9.42603 12.0878 10.5521 10.0791 10.5521C7.17683 10.5521 4.81647 8.18032 4.81647 5.26653C4.81647 3.24752 5.93928 1.43521 7.74484 0.534702ZM13.1277 8.30712C12.8342 8.3583 12.5389 8.38295 12.238 8.38295L12.2381 8.38312C9.33597 8.38312 6.9756 6.01327 6.97748 3.09948C6.97748 2.79616 7.00193 2.4985 7.05271 2.20466C6.24775 2.99897 5.77943 4.09093 5.77943 5.26632C5.77943 7.64549 7.70911 9.58107 10.0789 9.58107C11.2506 9.58107 12.3359 9.11284 13.1277 8.30712Z" fill="white"/>
<path fill-rule="evenodd" clip-rule="evenodd" d="M42.039 24.4101H42.0371C41.7719 24.4101 41.5575 24.6262 41.5556 24.8935L41.5443 27.485L23.677 0.923621C23.4984 0.656319 23.0602 0.656319 22.8796 0.923621L5.02532 27.466L5.03661 24.7153C5.03849 24.448 4.8222 24.2281 4.55701 24.2281H4.55513C4.28994 24.2281 4.07553 24.4442 4.07365 24.7115L4.05672 29.0528C4.05484 29.267 4.19402 29.4547 4.39526 29.5191C4.44228 29.5343 4.4893 29.54 4.5382 29.54C4.69431 29.54 4.84477 29.4623 4.93693 29.3277L7.7468 25.1513V29.0566C7.7468 29.3239 7.9631 29.5419 8.22829 29.5419H18.9523C19.4996 31.3315 21.1603 32.6358 23.1201 32.6358C23.1267 32.6358 23.1328 32.6353 23.1389 32.6348L23.1389 32.6348C23.145 32.6344 23.1512 32.6339 23.1577 32.6339C23.1605 32.6339 23.1638 32.6343 23.1671 32.6348L23.1671 32.6348L23.1672 32.6348C23.1705 32.6353 23.1737 32.6358 23.1765 32.6358C23.1825 32.6358 23.1885 32.6352 23.1944 32.6344L23.2048 32.6329C23.2142 32.6315 23.2236 32.6301 23.233 32.6301C25.1419 32.5808 26.75 31.2955 27.2861 29.5419H38.3303C38.5955 29.5419 38.8118 29.3239 38.8118 29.0566V25.1513L41.6217 29.3277C41.7402 29.504 41.9583 29.5817 42.1596 29.5191C42.3608 29.4566 42.5 29.2689 42.5 29.0566L42.5188 24.8973C42.5207 24.6281 42.3063 24.4119 42.0392 24.4101L42.039 24.4101ZM23.2328 31.6597L23.2274 31.6601C23.2031 31.6619 23.1803 31.6635 23.1576 31.6635C22.3225 31.6521 21.6454 30.9696 21.6454 30.1318C21.6454 29.5801 22.4504 28.3099 23.1764 27.3525C23.9024 28.3099 24.7074 29.58 24.7074 30.1318C24.7074 30.9564 24.051 31.6294 23.2328 31.6597L23.2328 31.6597ZM25.6684 30.1298C25.6684 30.2739 25.6496 30.4104 25.6271 30.5469L25.6271 30.5469C26.1781 29.9403 26.5166 29.1384 26.5129 28.2568C26.5129 26.8028 24.3236 23.7089 23.1162 22.1695C21.9106 23.7089 19.7195 26.8047 19.7195 28.2568C19.7195 29.2123 20.1163 30.0768 20.7501 30.6967C20.7088 30.5128 20.6805 30.3251 20.6805 30.1298C20.6805 28.9013 22.4504 26.6928 22.804 26.2624C22.9864 26.0406 23.3626 26.0406 23.545 26.2624C23.9005 26.6928 25.6684 28.9014 25.6684 30.1298ZM23.4905 21.089C23.3081 20.8672 22.9319 20.8672 22.7494 21.089C22.3413 21.5838 18.7603 25.997 18.7603 28.2572C18.7603 28.3333 18.7651 28.4084 18.7699 28.4833V28.4833C18.7718 28.5128 18.7737 28.5423 18.7753 28.5719H13.9268V25.3718C14.555 24.8599 16.637 23.0855 18.7455 20.4521C20.457 18.3156 22.4111 15.2957 23.297 11.8528C24.1828 15.2974 26.1369 18.3153 27.8485 20.4521C29.9568 23.0854 32.0388 24.8598 32.6671 25.3718V28.5719H27.4628C27.4703 28.4676 27.4778 28.3633 27.4778 28.2572C27.4797 25.9974 23.8987 21.5841 23.4906 21.089H23.4905ZM33.6278 28.5716H37.8483L37.8508 23.7204L23.2802 2.06121L8.70957 23.7204V28.5716H12.962V25.1365C12.962 24.9849 13.0316 24.8427 13.1501 24.7517L13.1504 24.7514C13.2666 24.6597 22.8134 17.1172 22.8134 8.19028C22.8134 7.92298 23.0297 7.70496 23.2949 7.70496C23.5601 7.70496 23.7764 7.92298 23.7764 8.19028C23.7764 17.1141 33.3165 24.6543 33.4393 24.7513L33.4397 24.7517C33.5582 24.8446 33.6278 24.9868 33.6278 25.1365V28.5716Z" fill="white"/>
<path fill-rule="evenodd" clip-rule="evenodd" d="M30.5961 34.433C30.6393 34.5543 30.6299 34.6908 30.5735 34.8064L30.5738 34.8064C30.5155 34.924 30.4158 35.0131 30.2917 35.0548L28.5106 35.6482L30.2221 36.1354C30.3463 36.1714 30.4516 36.2548 30.5136 36.3686C30.5757 36.4823 30.5889 36.615 30.5531 36.7401L29.9381 38.8293C29.8761 39.0397 29.6861 39.1762 29.4774 39.1762C29.4341 39.1762 29.389 39.1686 29.3457 39.1572L23.2179 37.4112L17.5942 39.2861C17.5453 39.3032 17.4945 39.3108 17.4437 39.3108C17.2444 39.3108 17.0582 39.1857 16.9923 38.9847L16.2832 36.924C16.24 36.8027 16.2494 36.6662 16.3058 36.5506C16.3622 36.433 16.4638 36.3458 16.5861 36.3041L18.0719 35.8093L16.287 35.3012C16.1629 35.2652 16.0576 35.1818 15.9955 35.0681C15.9334 34.9543 15.9203 34.8216 15.956 34.6965L16.571 32.6074C16.6462 32.3514 16.9095 32.2055 17.1634 32.2775L23.3644 34.0443L29.2814 32.0708C29.5315 31.9874 29.8005 32.122 29.887 32.3723L30.5961 34.433ZM17.3592 33.341L17.0169 34.4993L19.7026 35.2652L21.7339 34.5884L17.3592 33.341ZM29.4902 36.9354L29.1479 38.0937L24.8484 36.8671L26.8796 36.1904L29.4902 36.9354ZM17.3499 37.0718L17.743 38.215L29.5263 34.287L29.1332 33.1438L17.3499 37.0718Z" fill="white"/>
</g>
<defs>
<filter id="filter0_d" x="3.05176e-05" y="0.484253" width="46.5188" height="46.8265" filterUnits="userSpaceOnUse" color-interpolation-filters="sRGB">
<feFlood flood-opacity="0" result="BackgroundImageFix"/>
<feColorMatrix in="SourceAlpha" type="matrix" values="0 0 0 0 0 0 0 0 0 0 0 0 0 0 0 0 0 0 127 0"/>
<feOffset dy="4"/>
<feGaussianBlur stdDeviation="2"/>
<feColorMatrix type="matrix" values="0 0 0 0 0 0 0 0 0 0 0 0 0 0 0 0 0 0 0.25 0"/>
<feBlend mode="normal" in2="BackgroundImageFix" result="effect1_dropShadow"/>
<feBlend mode="normal" in="SourceGraphic" in2="effect1_dropShadow" result="shape"/>
</filter>
</defs>
</svg>
